# xmcd
#
# Track frame offsets:
# 150
# 17464
# 35406
# 52688
# 70473
# 87455
# 104381
# 118799
# 135137
# 153178
# 169580
# 188448
# 204408
# 219323
#
# Disc length: 3117 seconds
#
#
# Revision: 3
# Processed by: cddbd v1.5.2PL0 Copyright (c) Steve Scherf et al.
# Submitted via: FreeRIP 2.945 
#
DISCID=a90c2b0e
DTITLE=Swing and Simpatia - Retrato De Um Coração
DYEAR=2005
DGENRE=Pagode
TTITLE0=
TTITLE1=Me Redimir
TTITLE2=Retrato De Um Coração
TTITLE3=Por Quê?
TTITLE4=Sol Sem Ter Você
TTITLE5=Último Andar
TTITLE6=Por Você
TTITLE7=Vulcão Do Amor
TTITLE8=Encaixe perfeito
TTITLE9=Hipnose
TTITLE10=Sorria
TTITLE11=Parei Com A Madrugada
TTITLE12=Profundezas
TTITLE13=Noite Fria
EXTD=
EXTT0=
EXTT1=
EXTT2=
EXTT3=
EXTT4=
EXTT5=
EXTT6=
EXTT7=
EXTT8=
EXTT9=
EXTT10=
EXTT11=
EXTT12=
EXTT13=
PLAYORDER=
